%TF.GenerationSoftware,KiCad,Pcbnew,9.0.2*%
%TF.CreationDate,2025-11-28T15:39:44-05:00*%
%TF.ProjectId,hackathonproject,6861636b-6174-4686-9f6e-70726f6a6563,rev?*%
%TF.SameCoordinates,Original*%
%TF.FileFunction,Legend,Bot*%
%TF.FilePolarity,Positive*%
%FSLAX46Y46*%
G04 Gerber Fmt 4.6, Leading zero omitted, Abs format (unit mm)*
G04 Created by KiCad (PCBNEW 9.0.2) date 2025-11-28 15:39:44*
%MOMM*%
%LPD*%
G01*
G04 APERTURE LIST*
%ADD10C,0.100000*%
%ADD11C,0.254000*%
%ADD12C,0.120000*%
%ADD13C,0.000000*%
%ADD14C,0.152400*%
G04 APERTURE END LIST*
D10*
X186492544Y-92539856D02*
X186587782Y-92587475D01*
X186587782Y-92587475D02*
X186778258Y-92587475D01*
X186778258Y-92587475D02*
X186873496Y-92539856D01*
X186873496Y-92539856D02*
X186921115Y-92492236D01*
X186921115Y-92492236D02*
X186968734Y-92396998D01*
X186968734Y-92396998D02*
X186968734Y-92111284D01*
X186968734Y-92111284D02*
X186921115Y-92016046D01*
X186921115Y-92016046D02*
X186873496Y-91968427D01*
X186873496Y-91968427D02*
X186778258Y-91920808D01*
X186778258Y-91920808D02*
X186587782Y-91920808D01*
X186587782Y-91920808D02*
X186492544Y-91968427D01*
X186063972Y-92587475D02*
X186063972Y-91920808D01*
X186063972Y-92111284D02*
X186016353Y-92016046D01*
X186016353Y-92016046D02*
X185968734Y-91968427D01*
X185968734Y-91968427D02*
X185873496Y-91920808D01*
X185873496Y-91920808D02*
X185778258Y-91920808D01*
X185063972Y-92539856D02*
X185159210Y-92587475D01*
X185159210Y-92587475D02*
X185349686Y-92587475D01*
X185349686Y-92587475D02*
X185444924Y-92539856D01*
X185444924Y-92539856D02*
X185492543Y-92444617D01*
X185492543Y-92444617D02*
X185492543Y-92063665D01*
X185492543Y-92063665D02*
X185444924Y-91968427D01*
X185444924Y-91968427D02*
X185349686Y-91920808D01*
X185349686Y-91920808D02*
X185159210Y-91920808D01*
X185159210Y-91920808D02*
X185063972Y-91968427D01*
X185063972Y-91968427D02*
X185016353Y-92063665D01*
X185016353Y-92063665D02*
X185016353Y-92158903D01*
X185016353Y-92158903D02*
X185492543Y-92254141D01*
X184159210Y-92587475D02*
X184159210Y-92063665D01*
X184159210Y-92063665D02*
X184206829Y-91968427D01*
X184206829Y-91968427D02*
X184302067Y-91920808D01*
X184302067Y-91920808D02*
X184492543Y-91920808D01*
X184492543Y-91920808D02*
X184587781Y-91968427D01*
X184159210Y-92539856D02*
X184254448Y-92587475D01*
X184254448Y-92587475D02*
X184492543Y-92587475D01*
X184492543Y-92587475D02*
X184587781Y-92539856D01*
X184587781Y-92539856D02*
X184635400Y-92444617D01*
X184635400Y-92444617D02*
X184635400Y-92349379D01*
X184635400Y-92349379D02*
X184587781Y-92254141D01*
X184587781Y-92254141D02*
X184492543Y-92206522D01*
X184492543Y-92206522D02*
X184254448Y-92206522D01*
X184254448Y-92206522D02*
X184159210Y-92158903D01*
X183825876Y-91920808D02*
X183444924Y-91920808D01*
X183683019Y-91587475D02*
X183683019Y-92444617D01*
X183683019Y-92444617D02*
X183635400Y-92539856D01*
X183635400Y-92539856D02*
X183540162Y-92587475D01*
X183540162Y-92587475D02*
X183444924Y-92587475D01*
X182730638Y-92539856D02*
X182825876Y-92587475D01*
X182825876Y-92587475D02*
X183016352Y-92587475D01*
X183016352Y-92587475D02*
X183111590Y-92539856D01*
X183111590Y-92539856D02*
X183159209Y-92444617D01*
X183159209Y-92444617D02*
X183159209Y-92063665D01*
X183159209Y-92063665D02*
X183111590Y-91968427D01*
X183111590Y-91968427D02*
X183016352Y-91920808D01*
X183016352Y-91920808D02*
X182825876Y-91920808D01*
X182825876Y-91920808D02*
X182730638Y-91968427D01*
X182730638Y-91968427D02*
X182683019Y-92063665D01*
X182683019Y-92063665D02*
X182683019Y-92158903D01*
X182683019Y-92158903D02*
X183159209Y-92254141D01*
X181825876Y-92587475D02*
X181825876Y-91587475D01*
X181825876Y-92539856D02*
X181921114Y-92587475D01*
X181921114Y-92587475D02*
X182111590Y-92587475D01*
X182111590Y-92587475D02*
X182206828Y-92539856D01*
X182206828Y-92539856D02*
X182254447Y-92492236D01*
X182254447Y-92492236D02*
X182302066Y-92396998D01*
X182302066Y-92396998D02*
X182302066Y-92111284D01*
X182302066Y-92111284D02*
X182254447Y-92016046D01*
X182254447Y-92016046D02*
X182206828Y-91968427D01*
X182206828Y-91968427D02*
X182111590Y-91920808D01*
X182111590Y-91920808D02*
X181921114Y-91920808D01*
X181921114Y-91920808D02*
X181825876Y-91968427D01*
X180587780Y-92587475D02*
X180587780Y-91587475D01*
X180587780Y-91968427D02*
X180492542Y-91920808D01*
X180492542Y-91920808D02*
X180302066Y-91920808D01*
X180302066Y-91920808D02*
X180206828Y-91968427D01*
X180206828Y-91968427D02*
X180159209Y-92016046D01*
X180159209Y-92016046D02*
X180111590Y-92111284D01*
X180111590Y-92111284D02*
X180111590Y-92396998D01*
X180111590Y-92396998D02*
X180159209Y-92492236D01*
X180159209Y-92492236D02*
X180206828Y-92539856D01*
X180206828Y-92539856D02*
X180302066Y-92587475D01*
X180302066Y-92587475D02*
X180492542Y-92587475D01*
X180492542Y-92587475D02*
X180587780Y-92539856D01*
X179778256Y-91920808D02*
X179540161Y-92587475D01*
X179302066Y-91920808D02*
X179540161Y-92587475D01*
X179540161Y-92587475D02*
X179635399Y-92825570D01*
X179635399Y-92825570D02*
X179683018Y-92873189D01*
X179683018Y-92873189D02*
X179778256Y-92920808D01*
X186921115Y-94197419D02*
X186921115Y-93530752D01*
X186921115Y-93625990D02*
X186873496Y-93578371D01*
X186873496Y-93578371D02*
X186778258Y-93530752D01*
X186778258Y-93530752D02*
X186635401Y-93530752D01*
X186635401Y-93530752D02*
X186540163Y-93578371D01*
X186540163Y-93578371D02*
X186492544Y-93673609D01*
X186492544Y-93673609D02*
X186492544Y-94197419D01*
X186492544Y-93673609D02*
X186444925Y-93578371D01*
X186444925Y-93578371D02*
X186349687Y-93530752D01*
X186349687Y-93530752D02*
X186206830Y-93530752D01*
X186206830Y-93530752D02*
X186111591Y-93578371D01*
X186111591Y-93578371D02*
X186063972Y-93673609D01*
X186063972Y-93673609D02*
X186063972Y-94197419D01*
X185159211Y-94197419D02*
X185159211Y-93673609D01*
X185159211Y-93673609D02*
X185206830Y-93578371D01*
X185206830Y-93578371D02*
X185302068Y-93530752D01*
X185302068Y-93530752D02*
X185492544Y-93530752D01*
X185492544Y-93530752D02*
X185587782Y-93578371D01*
X185159211Y-94149800D02*
X185254449Y-94197419D01*
X185254449Y-94197419D02*
X185492544Y-94197419D01*
X185492544Y-94197419D02*
X185587782Y-94149800D01*
X185587782Y-94149800D02*
X185635401Y-94054561D01*
X185635401Y-94054561D02*
X185635401Y-93959323D01*
X185635401Y-93959323D02*
X185587782Y-93864085D01*
X185587782Y-93864085D02*
X185492544Y-93816466D01*
X185492544Y-93816466D02*
X185254449Y-93816466D01*
X185254449Y-93816466D02*
X185159211Y-93768847D01*
X184825877Y-93530752D02*
X184444925Y-93530752D01*
X184683020Y-93197419D02*
X184683020Y-94054561D01*
X184683020Y-94054561D02*
X184635401Y-94149800D01*
X184635401Y-94149800D02*
X184540163Y-94197419D01*
X184540163Y-94197419D02*
X184444925Y-94197419D01*
X183730639Y-94149800D02*
X183825877Y-94197419D01*
X183825877Y-94197419D02*
X184016353Y-94197419D01*
X184016353Y-94197419D02*
X184111591Y-94149800D01*
X184111591Y-94149800D02*
X184159210Y-94054561D01*
X184159210Y-94054561D02*
X184159210Y-93673609D01*
X184159210Y-93673609D02*
X184111591Y-93578371D01*
X184111591Y-93578371D02*
X184016353Y-93530752D01*
X184016353Y-93530752D02*
X183825877Y-93530752D01*
X183825877Y-93530752D02*
X183730639Y-93578371D01*
X183730639Y-93578371D02*
X183683020Y-93673609D01*
X183683020Y-93673609D02*
X183683020Y-93768847D01*
X183683020Y-93768847D02*
X184159210Y-93864085D01*
X183111591Y-94197419D02*
X183206829Y-94149800D01*
X183206829Y-94149800D02*
X183254448Y-94102180D01*
X183254448Y-94102180D02*
X183302067Y-94006942D01*
X183302067Y-94006942D02*
X183302067Y-93721228D01*
X183302067Y-93721228D02*
X183254448Y-93625990D01*
X183254448Y-93625990D02*
X183206829Y-93578371D01*
X183206829Y-93578371D02*
X183111591Y-93530752D01*
X183111591Y-93530752D02*
X182968734Y-93530752D01*
X182968734Y-93530752D02*
X182873496Y-93578371D01*
X182873496Y-93578371D02*
X182825877Y-93625990D01*
X182825877Y-93625990D02*
X182778258Y-93721228D01*
X182778258Y-93721228D02*
X182778258Y-94006942D01*
X182778258Y-94006942D02*
X182825877Y-94102180D01*
X182825877Y-94102180D02*
X182873496Y-94149800D01*
X182873496Y-94149800D02*
X182968734Y-94197419D01*
X182968734Y-94197419D02*
X183111591Y-94197419D01*
X181587781Y-93530752D02*
X181587781Y-94387895D01*
X181587781Y-94387895D02*
X181635400Y-94483133D01*
X181635400Y-94483133D02*
X181730638Y-94530752D01*
X181730638Y-94530752D02*
X181778257Y-94530752D01*
X181587781Y-93197419D02*
X181635400Y-93245038D01*
X181635400Y-93245038D02*
X181587781Y-93292657D01*
X181587781Y-93292657D02*
X181540162Y-93245038D01*
X181540162Y-93245038D02*
X181587781Y-93197419D01*
X181587781Y-93197419D02*
X181587781Y-93292657D01*
X180968734Y-94197419D02*
X181063972Y-94149800D01*
X181063972Y-94149800D02*
X181111591Y-94102180D01*
X181111591Y-94102180D02*
X181159210Y-94006942D01*
X181159210Y-94006942D02*
X181159210Y-93721228D01*
X181159210Y-93721228D02*
X181111591Y-93625990D01*
X181111591Y-93625990D02*
X181063972Y-93578371D01*
X181063972Y-93578371D02*
X180968734Y-93530752D01*
X180968734Y-93530752D02*
X180825877Y-93530752D01*
X180825877Y-93530752D02*
X180730639Y-93578371D01*
X180730639Y-93578371D02*
X180683020Y-93625990D01*
X180683020Y-93625990D02*
X180635401Y-93721228D01*
X180635401Y-93721228D02*
X180635401Y-94006942D01*
X180635401Y-94006942D02*
X180683020Y-94102180D01*
X180683020Y-94102180D02*
X180730639Y-94149800D01*
X180730639Y-94149800D02*
X180825877Y-94197419D01*
X180825877Y-94197419D02*
X180968734Y-94197419D01*
X180206829Y-94197419D02*
X180206829Y-93197419D01*
X179778258Y-94197419D02*
X179778258Y-93673609D01*
X179778258Y-93673609D02*
X179825877Y-93578371D01*
X179825877Y-93578371D02*
X179921115Y-93530752D01*
X179921115Y-93530752D02*
X180063972Y-93530752D01*
X180063972Y-93530752D02*
X180159210Y-93578371D01*
X180159210Y-93578371D02*
X180206829Y-93625990D01*
X179302067Y-93530752D02*
X179302067Y-94197419D01*
X179302067Y-93625990D02*
X179254448Y-93578371D01*
X179254448Y-93578371D02*
X179159210Y-93530752D01*
X179159210Y-93530752D02*
X179016353Y-93530752D01*
X179016353Y-93530752D02*
X178921115Y-93578371D01*
X178921115Y-93578371D02*
X178873496Y-93673609D01*
X178873496Y-93673609D02*
X178873496Y-94197419D01*
X178444924Y-94149800D02*
X178349686Y-94197419D01*
X178349686Y-94197419D02*
X178159210Y-94197419D01*
X178159210Y-94197419D02*
X178063972Y-94149800D01*
X178063972Y-94149800D02*
X178016353Y-94054561D01*
X178016353Y-94054561D02*
X178016353Y-94006942D01*
X178016353Y-94006942D02*
X178063972Y-93911704D01*
X178063972Y-93911704D02*
X178159210Y-93864085D01*
X178159210Y-93864085D02*
X178302067Y-93864085D01*
X178302067Y-93864085D02*
X178397305Y-93816466D01*
X178397305Y-93816466D02*
X178444924Y-93721228D01*
X178444924Y-93721228D02*
X178444924Y-93673609D01*
X178444924Y-93673609D02*
X178397305Y-93578371D01*
X178397305Y-93578371D02*
X178302067Y-93530752D01*
X178302067Y-93530752D02*
X178159210Y-93530752D01*
X178159210Y-93530752D02*
X178063972Y-93578371D01*
X177444924Y-94197419D02*
X177540162Y-94149800D01*
X177540162Y-94149800D02*
X177587781Y-94102180D01*
X177587781Y-94102180D02*
X177635400Y-94006942D01*
X177635400Y-94006942D02*
X177635400Y-93721228D01*
X177635400Y-93721228D02*
X177587781Y-93625990D01*
X177587781Y-93625990D02*
X177540162Y-93578371D01*
X177540162Y-93578371D02*
X177444924Y-93530752D01*
X177444924Y-93530752D02*
X177302067Y-93530752D01*
X177302067Y-93530752D02*
X177206829Y-93578371D01*
X177206829Y-93578371D02*
X177159210Y-93625990D01*
X177159210Y-93625990D02*
X177111591Y-93721228D01*
X177111591Y-93721228D02*
X177111591Y-94006942D01*
X177111591Y-94006942D02*
X177159210Y-94102180D01*
X177159210Y-94102180D02*
X177206829Y-94149800D01*
X177206829Y-94149800D02*
X177302067Y-94197419D01*
X177302067Y-94197419D02*
X177444924Y-94197419D01*
X176683019Y-93530752D02*
X176683019Y-94197419D01*
X176683019Y-93625990D02*
X176635400Y-93578371D01*
X176635400Y-93578371D02*
X176540162Y-93530752D01*
X176540162Y-93530752D02*
X176397305Y-93530752D01*
X176397305Y-93530752D02*
X176302067Y-93578371D01*
X176302067Y-93578371D02*
X176254448Y-93673609D01*
X176254448Y-93673609D02*
X176254448Y-94197419D01*
X175778257Y-94102180D02*
X175730638Y-94149800D01*
X175730638Y-94149800D02*
X175778257Y-94197419D01*
X175778257Y-94197419D02*
X175825876Y-94149800D01*
X175825876Y-94149800D02*
X175778257Y-94102180D01*
X175778257Y-94102180D02*
X175778257Y-94197419D01*
D11*
%TO.C,Card1*%
X166575000Y-69043900D02*
X166575000Y-63406300D01*
X166575000Y-73300200D02*
X166575000Y-72256200D01*
X177018900Y-73300200D02*
X166575000Y-73300200D01*
X177218800Y-61800200D02*
X176281100Y-61800200D01*
X178575000Y-69743900D02*
X178575000Y-63406300D01*
X178575000Y-73300200D02*
X178481100Y-73300200D01*
X178575000Y-73300200D02*
X178575000Y-71606200D01*
D12*
%TO.C,BT1*%
X144080000Y-71850000D02*
X141980000Y-71850000D01*
X144080000Y-85350000D02*
X141980000Y-85350000D01*
X148080000Y-85350000D02*
X149530000Y-85350000D01*
X149530000Y-71850000D02*
X148080000Y-71850000D01*
X149530000Y-85350000D02*
X152130000Y-82750000D01*
X152130000Y-74450000D02*
X149530000Y-71850000D01*
X152130000Y-82750000D02*
X152930000Y-82750000D01*
X152930000Y-74450000D02*
X152130000Y-74450000D01*
X152930000Y-82750000D02*
X152930000Y-74450000D01*
X140480000Y-73300000D02*
G75*
G02*
X142030000Y-71850000I1500000J-50000D01*
G01*
X140495840Y-84014615D02*
G75*
G02*
X140880000Y-83100000I984161J124615D01*
G01*
X140880000Y-74100000D02*
G75*
G02*
X140495840Y-73185385I600000J790000D01*
G01*
X142030000Y-85350000D02*
G75*
G02*
X140480000Y-83900000I-50001J1499999D01*
G01*
D13*
%TO.C,G\u002A\u002A\u002A*%
G36*
X166974836Y-92386729D02*
G01*
X167022106Y-92396714D01*
X167069737Y-92413887D01*
X167113326Y-92437299D01*
X167130818Y-92448735D01*
X167105366Y-92557701D01*
X167104657Y-92560730D01*
X167092686Y-92608855D01*
X167082857Y-92641763D01*
X167074766Y-92660638D01*
X167068005Y-92666666D01*
X167061676Y-92665235D01*
X167041894Y-92657941D01*
X167013435Y-92645866D01*
X166980131Y-92630581D01*
X166956272Y-92618723D01*
X166904989Y-92587891D01*
X166869302Y-92556764D01*
X166848449Y-92524572D01*
X166841667Y-92490542D01*
X166842155Y-92480128D01*
X166852000Y-92442628D01*
X166872354Y-92411490D01*
X166900373Y-92391512D01*
X166932330Y-92384876D01*
X166974836Y-92386729D01*
G37*
G36*
X167083865Y-92052202D02*
G01*
X167114561Y-92058148D01*
X167148420Y-92066800D01*
X167181544Y-92076954D01*
X167210031Y-92087407D01*
X167229983Y-92096956D01*
X167237500Y-92104396D01*
X167234926Y-92113454D01*
X167226985Y-92134969D01*
X167214961Y-92165309D01*
X167200163Y-92201084D01*
X167196253Y-92210373D01*
X167180823Y-92246319D01*
X167169093Y-92269128D01*
X167158521Y-92280531D01*
X167146566Y-92282257D01*
X167130684Y-92276040D01*
X167108334Y-92263608D01*
X167080375Y-92246464D01*
X167036050Y-92211737D01*
X167004967Y-92175809D01*
X166988182Y-92140050D01*
X166986751Y-92105832D01*
X166990383Y-92091467D01*
X167003903Y-92066986D01*
X167026717Y-92053929D01*
X167061709Y-92050154D01*
X167083865Y-92052202D01*
G37*
G36*
X172058646Y-91887731D02*
G01*
X172067293Y-91896477D01*
X172083324Y-91916251D01*
X172105162Y-91944836D01*
X172131232Y-91980014D01*
X172159959Y-92019565D01*
X172189767Y-92061273D01*
X172219080Y-92102918D01*
X172246322Y-92142283D01*
X172269919Y-92177149D01*
X172288294Y-92205298D01*
X172299872Y-92224511D01*
X172303077Y-92232571D01*
X172302913Y-92232701D01*
X172292788Y-92235646D01*
X172269770Y-92240774D01*
X172237091Y-92247399D01*
X172197985Y-92254836D01*
X172196692Y-92255075D01*
X172156106Y-92262197D01*
X172120450Y-92267809D01*
X172093534Y-92271351D01*
X172079167Y-92272265D01*
X172074607Y-92271482D01*
X172068624Y-92267898D01*
X172063729Y-92259682D01*
X172059539Y-92244834D01*
X172055673Y-92221357D01*
X172051746Y-92187253D01*
X172047377Y-92140522D01*
X172042182Y-92079166D01*
X172042156Y-92078854D01*
X172037926Y-92011527D01*
X172037442Y-91958143D01*
X172040655Y-91919287D01*
X172047517Y-91895544D01*
X172057980Y-91887500D01*
X172058646Y-91887731D01*
G37*
G36*
X174894429Y-92440888D02*
G01*
X174940297Y-92576508D01*
X174991704Y-92744651D01*
X175045735Y-92943560D01*
X175095006Y-93149180D01*
X175138844Y-93358035D01*
X175176576Y-93566647D01*
X175207527Y-93771538D01*
X175231023Y-93969231D01*
X175246391Y-94156250D01*
X175252144Y-94250000D01*
X175109406Y-94250000D01*
X174966667Y-94250000D01*
X174966638Y-94114583D01*
X174966370Y-94072547D01*
X174962553Y-93936864D01*
X174954539Y-93790991D01*
X174942744Y-93639273D01*
X174927582Y-93486054D01*
X174909468Y-93335677D01*
X174888815Y-93192488D01*
X174866040Y-93060830D01*
X174848430Y-92968354D01*
X174784632Y-92959143D01*
X174727403Y-92951510D01*
X174633166Y-92941754D01*
X174537300Y-92935492D01*
X174438983Y-92932868D01*
X174337396Y-92934025D01*
X174231718Y-92939108D01*
X174121129Y-92948259D01*
X174004810Y-92961624D01*
X173881940Y-92979346D01*
X173751698Y-93001568D01*
X173613265Y-93028435D01*
X173465821Y-93060090D01*
X173308545Y-93096677D01*
X173140618Y-93138341D01*
X172961219Y-93185225D01*
X172860833Y-93212586D01*
X172769527Y-93237472D01*
X172564724Y-93295227D01*
X172345988Y-93358634D01*
X172112500Y-93427836D01*
X171983070Y-93466419D01*
X171834102Y-93510379D01*
X171698060Y-93549925D01*
X171573322Y-93585479D01*
X171458266Y-93617458D01*
X171351269Y-93646282D01*
X171250709Y-93672371D01*
X171154963Y-93696142D01*
X171062410Y-93718016D01*
X170971426Y-93738412D01*
X170880389Y-93757749D01*
X170787677Y-93776446D01*
X170691667Y-93794922D01*
X170524438Y-93824625D01*
X170300482Y-93858564D01*
X170074031Y-93886022D01*
X169841742Y-93907342D01*
X169600273Y-93922868D01*
X169346282Y-93932942D01*
X169302842Y-93934100D01*
X169189261Y-93936156D01*
X169088789Y-93936278D01*
X168998866Y-93934353D01*
X168916929Y-93930266D01*
X168840417Y-93923903D01*
X168766766Y-93915151D01*
X168693416Y-93903896D01*
X168514180Y-93867582D01*
X168314429Y-93814072D01*
X168108082Y-93745783D01*
X167895424Y-93662856D01*
X167676742Y-93565436D01*
X167452322Y-93453665D01*
X167222450Y-93327687D01*
X166987412Y-93187644D01*
X166937198Y-93155420D01*
X168046842Y-93155420D01*
X168051088Y-93181293D01*
X168064420Y-93207564D01*
X168084537Y-93228315D01*
X168086847Y-93229861D01*
X168112584Y-93242593D01*
X168151500Y-93257072D01*
X168200709Y-93272535D01*
X168257319Y-93288221D01*
X168318443Y-93303366D01*
X168381191Y-93317208D01*
X168442673Y-93328986D01*
X168500000Y-93337936D01*
X168519276Y-93340539D01*
X168552931Y-93345009D01*
X168576373Y-93347493D01*
X168594000Y-93347967D01*
X168610208Y-93346407D01*
X168629393Y-93342790D01*
X168655952Y-93337091D01*
X168657094Y-93336828D01*
X168665489Y-93333054D01*
X168672649Y-93325096D01*
X168678979Y-93311183D01*
X168684767Y-93289975D01*
X168879205Y-93289975D01*
X168879999Y-93334453D01*
X168895870Y-93375740D01*
X168925479Y-93412529D01*
X168967485Y-93443513D01*
X169020550Y-93467383D01*
X169083334Y-93482833D01*
X169094477Y-93484597D01*
X169127280Y-93489015D01*
X169152445Y-93490175D01*
X169176815Y-93488068D01*
X169207236Y-93482686D01*
X169265143Y-93464655D01*
X169323542Y-93430456D01*
X169374953Y-93382096D01*
X169418870Y-93320302D01*
X169454786Y-93245802D01*
X169482197Y-93159321D01*
X169500594Y-93061585D01*
X169505122Y-93013715D01*
X169507486Y-92952281D01*
X169507291Y-92885761D01*
X169504708Y-92818487D01*
X169499911Y-92754795D01*
X169493073Y-92699015D01*
X169484367Y-92655483D01*
X169468098Y-92602132D01*
X169437350Y-92530710D01*
X169399283Y-92472722D01*
X169352942Y-92426824D01*
X169297374Y-92391669D01*
X169265766Y-92378402D01*
X169262939Y-92377827D01*
X170041667Y-92377827D01*
X170042528Y-92395289D01*
X170047877Y-92423246D01*
X170059022Y-92452989D01*
X170077002Y-92486143D01*
X170102854Y-92524334D01*
X170137616Y-92569188D01*
X170182326Y-92622332D01*
X170238023Y-92685390D01*
X170325888Y-92783281D01*
X170304381Y-92811478D01*
X170304210Y-92811704D01*
X170292903Y-92830729D01*
X170278115Y-92861272D01*
X170261743Y-92899166D01*
X170245687Y-92940248D01*
X170241417Y-92952281D01*
X170222447Y-93005738D01*
X170192811Y-93101597D01*
X170173170Y-93184940D01*
X170163504Y-93256260D01*
X170163790Y-93316047D01*
X170174008Y-93364796D01*
X170194135Y-93402996D01*
X170224150Y-93431140D01*
X170226433Y-93432629D01*
X170261274Y-93447314D01*
X170298313Y-93447136D01*
X170340265Y-93432118D01*
X170355566Y-93423722D01*
X170378394Y-93405928D01*
X170396164Y-93382448D01*
X170410278Y-93350539D01*
X170422139Y-93307457D01*
X170433148Y-93250461D01*
X170435452Y-93237193D01*
X170443856Y-93191266D01*
X170454157Y-93137558D01*
X170465540Y-93080100D01*
X170477188Y-93022919D01*
X170488283Y-92970045D01*
X170498008Y-92925507D01*
X170505548Y-92893334D01*
X170506537Y-92889728D01*
X170512310Y-92879814D01*
X170524616Y-92876106D01*
X170548440Y-92876667D01*
X170586530Y-92879166D01*
X170616482Y-92958333D01*
X170638108Y-93012622D01*
X170662168Y-93064204D01*
X170687729Y-93107968D01*
X170717492Y-93148459D01*
X170754156Y-93190223D01*
X170779748Y-93216017D01*
X170826058Y-93254300D01*
X170869508Y-93279389D01*
X170908949Y-93290857D01*
X170943233Y-93288274D01*
X170971213Y-93271212D01*
X170978792Y-93262680D01*
X170988883Y-93241889D01*
X170991667Y-93212586D01*
X170991473Y-93206150D01*
X170989202Y-93190076D01*
X170983636Y-93170617D01*
X170973846Y-93145518D01*
X170958906Y-93112527D01*
X170937886Y-93069388D01*
X170909859Y-93013846D01*
X170881104Y-92956278D01*
X170838999Y-92865678D01*
X170805249Y-92782349D01*
X170778801Y-92702466D01*
X170758606Y-92622203D01*
X170743613Y-92537735D01*
X170732771Y-92445236D01*
X170725029Y-92340882D01*
X170722862Y-92306978D01*
X170716304Y-92231929D01*
X170707946Y-92171578D01*
X170697431Y-92124552D01*
X170684401Y-92089473D01*
X170676611Y-92077469D01*
X170916667Y-92077469D01*
X170916684Y-92085677D01*
X170917639Y-92113939D01*
X170921424Y-92132507D01*
X170929918Y-92147074D01*
X170945000Y-92163333D01*
X170958694Y-92175326D01*
X170988508Y-92189667D01*
X171019821Y-92188435D01*
X171053608Y-92171467D01*
X171090845Y-92138596D01*
X171099812Y-92130059D01*
X171122824Y-92113045D01*
X171142900Y-92103895D01*
X171144219Y-92103616D01*
X171181677Y-92104258D01*
X171219242Y-92121034D01*
X171256520Y-92153436D01*
X171293118Y-92200958D01*
X171328643Y-92263091D01*
X171362702Y-92339330D01*
X171394903Y-92429166D01*
X171400539Y-92446708D01*
X171416234Y-92497391D01*
X171427329Y-92538061D01*
X171434612Y-92573100D01*
X171438870Y-92606891D01*
X171440892Y-92643817D01*
X171441463Y-92688258D01*
X171439563Y-92748281D01*
X171430933Y-92810484D01*
X171414507Y-92859445D01*
X171389379Y-92896409D01*
X171354642Y-92922623D01*
X171309389Y-92939334D01*
X171252715Y-92947788D01*
X171227270Y-92950486D01*
X171193523Y-92959037D01*
X171172379Y-92974250D01*
X171161446Y-92998293D01*
X171158334Y-93033333D01*
X171158353Y-93035802D01*
X171164593Y-93073928D01*
X171183040Y-93106583D01*
X171215180Y-93135615D01*
X171262500Y-93162874D01*
X171274978Y-93168675D01*
X171302351Y-93178258D01*
X171329667Y-93181625D01*
X171362210Y-93179072D01*
X171405263Y-93170895D01*
X171456069Y-93156498D01*
X171520069Y-93125898D01*
X171573834Y-93083200D01*
X171617684Y-93027973D01*
X171651938Y-92959786D01*
X171676916Y-92878207D01*
X171692938Y-92782804D01*
X171697323Y-92724286D01*
X171695566Y-92621794D01*
X171683197Y-92515844D01*
X171661095Y-92409225D01*
X171630136Y-92304722D01*
X171591196Y-92205125D01*
X171545154Y-92113220D01*
X171492884Y-92031796D01*
X171446332Y-91976730D01*
X171844173Y-91976730D01*
X171849694Y-92099440D01*
X171855612Y-92168678D01*
X171865334Y-92255937D01*
X171877470Y-92345308D01*
X171891567Y-92434449D01*
X171907169Y-92521019D01*
X171923825Y-92602676D01*
X171941079Y-92677077D01*
X171953754Y-92724286D01*
X171958478Y-92741882D01*
X171975569Y-92794747D01*
X171991897Y-92833333D01*
X172004094Y-92852740D01*
X172031714Y-92885172D01*
X172064343Y-92914800D01*
X172095834Y-92935578D01*
X172116873Y-92944753D01*
X172159532Y-92954177D01*
X172196151Y-92948589D01*
X172226048Y-92928031D01*
X172227607Y-92926315D01*
X172239392Y-92907105D01*
X172245002Y-92881960D01*
X172244256Y-92849049D01*
X172236973Y-92806542D01*
X172222972Y-92752608D01*
X172202073Y-92685416D01*
X172192704Y-92656762D01*
X172180018Y-92617656D01*
X172170017Y-92586440D01*
X172163545Y-92565759D01*
X172161449Y-92558260D01*
X172161612Y-92558243D01*
X172171521Y-92557088D01*
X172194443Y-92554385D01*
X172227213Y-92550509D01*
X172266667Y-92545833D01*
X172306577Y-92541034D01*
X172347473Y-92536471D01*
X172376783Y-92534753D01*
X172397375Y-92536675D01*
X172412119Y-92543035D01*
X172423883Y-92554629D01*
X172435537Y-92572253D01*
X172449950Y-92596703D01*
X172457575Y-92609036D01*
X172488309Y-92652038D01*
X172522820Y-92692081D01*
X172558169Y-92726247D01*
X172591419Y-92751616D01*
X172619630Y-92765270D01*
X172624912Y-92766603D01*
X172661456Y-92768388D01*
X172691733Y-92756788D01*
X172712754Y-92732843D01*
X172721493Y-92710131D01*
X172724367Y-92678010D01*
X172717218Y-92640760D01*
X172699543Y-92596078D01*
X172670838Y-92541666D01*
X172663091Y-92528024D01*
X172642623Y-92491433D01*
X172616054Y-92443449D01*
X172584567Y-92386246D01*
X172549345Y-92321996D01*
X172511572Y-92252872D01*
X172472431Y-92181047D01*
X172433106Y-92108694D01*
X172394779Y-92037985D01*
X172358634Y-91971094D01*
X172325855Y-91910194D01*
X172297625Y-91857456D01*
X172275126Y-91815055D01*
X172259174Y-91785094D01*
X172224420Y-91722751D01*
X172193984Y-91673282D01*
X172166488Y-91634865D01*
X172140555Y-91605683D01*
X172114807Y-91583914D01*
X172087866Y-91567741D01*
X172048612Y-91553020D01*
X172015652Y-91548189D01*
X172642620Y-91548189D01*
X172649957Y-91606951D01*
X172659586Y-91649158D01*
X172678752Y-91729450D01*
X172699289Y-91810381D01*
X172721899Y-91894461D01*
X172747282Y-91984202D01*
X172776142Y-92082115D01*
X172809179Y-92190710D01*
X172847094Y-92312500D01*
X172866179Y-92372337D01*
X172889515Y-92441658D01*
X172910504Y-92497927D01*
X172930154Y-92542938D01*
X172949477Y-92578486D01*
X172969480Y-92606366D01*
X172991175Y-92628371D01*
X173015570Y-92646298D01*
X173043675Y-92661939D01*
X173055330Y-92667464D01*
X173087578Y-92678010D01*
X173095935Y-92680743D01*
X173130799Y-92680744D01*
X173163165Y-92667621D01*
X173164155Y-92667011D01*
X173182040Y-92653249D01*
X173195000Y-92636048D01*
X173203091Y-92613610D01*
X173206365Y-92584133D01*
X173204877Y-92545820D01*
X173198680Y-92496870D01*
X173187828Y-92435485D01*
X173172376Y-92359865D01*
X173164056Y-92320065D01*
X173155142Y-92275616D01*
X173148078Y-92238322D01*
X173143436Y-92211224D01*
X173141789Y-92197365D01*
X173142560Y-92192546D01*
X173147188Y-92185682D01*
X173157723Y-92178019D01*
X173176120Y-92168587D01*
X173204335Y-92156418D01*
X173244323Y-92140545D01*
X173298039Y-92120000D01*
X173454167Y-92060834D01*
X173513493Y-92174167D01*
X173519755Y-92186108D01*
X173551135Y-92245036D01*
X173577040Y-92291490D01*
X173598950Y-92327635D01*
X173618341Y-92355636D01*
X173636692Y-92377656D01*
X173655482Y-92395862D01*
X173676189Y-92412418D01*
X173702868Y-92430723D01*
X173751455Y-92454945D01*
X173795745Y-92463844D01*
X173836607Y-92457666D01*
X173860099Y-92446869D01*
X173880222Y-92428375D01*
X173892397Y-92401501D01*
X173897679Y-92363719D01*
X173897122Y-92312500D01*
X173896661Y-92304519D01*
X173893721Y-92272026D01*
X173888564Y-92240755D01*
X173880205Y-92206528D01*
X173867657Y-92165169D01*
X173849935Y-92112500D01*
X173843469Y-92093596D01*
X173801587Y-91961949D01*
X173761367Y-91820021D01*
X173724304Y-91673350D01*
X173691894Y-91527472D01*
X173685240Y-91495228D01*
X173673304Y-91438226D01*
X173663638Y-91394366D01*
X173655548Y-91361481D01*
X173648341Y-91337403D01*
X173641319Y-91319966D01*
X173633790Y-91307000D01*
X173625057Y-91296339D01*
X173614427Y-91285815D01*
X173578064Y-91257289D01*
X173541832Y-91242881D01*
X173505185Y-91243853D01*
X173465833Y-91259803D01*
X173434330Y-91284127D01*
X173401903Y-91326449D01*
X173375012Y-91382339D01*
X173354288Y-91450439D01*
X173340364Y-91529390D01*
X173339049Y-91540333D01*
X173335399Y-91579039D01*
X173335094Y-91610226D01*
X173338383Y-91641078D01*
X173345512Y-91678778D01*
X173348026Y-91691271D01*
X173353445Y-91723258D01*
X173356217Y-91748126D01*
X173355774Y-91761317D01*
X173349279Y-91767030D01*
X173327803Y-91778661D01*
X173292492Y-91794843D01*
X173244421Y-91815111D01*
X173184666Y-91838997D01*
X173114303Y-91866035D01*
X173108275Y-91868230D01*
X173097674Y-91870059D01*
X173089548Y-91864981D01*
X173080926Y-91850175D01*
X173068838Y-91822817D01*
X173058881Y-91800604D01*
X173042518Y-91765564D01*
X173021890Y-91722307D01*
X172998650Y-91674298D01*
X172974450Y-91625000D01*
X172958646Y-91593303D01*
X172933857Y-91545245D01*
X172913540Y-91508749D01*
X172896240Y-91481420D01*
X172880500Y-91460864D01*
X172864865Y-91444685D01*
X172841133Y-91425402D01*
X172802983Y-91406423D01*
X172764246Y-91403103D01*
X172722710Y-91414978D01*
X172700838Y-91426819D01*
X172668264Y-91457586D01*
X172648790Y-91498222D01*
X172642620Y-91548189D01*
X172015652Y-91548189D01*
X172008693Y-91547169D01*
X171973756Y-91551001D01*
X171948024Y-91564609D01*
X171932470Y-91580953D01*
X171899284Y-91631465D01*
X171873883Y-91696181D01*
X171856245Y-91775219D01*
X171846349Y-91868696D01*
X171844173Y-91976730D01*
X171446332Y-91976730D01*
X171435265Y-91963639D01*
X171423394Y-91952030D01*
X171365275Y-91905925D01*
X171302655Y-91874253D01*
X171232956Y-91855974D01*
X171153596Y-91850048D01*
X171142216Y-91850251D01*
X171079550Y-91859803D01*
X171024913Y-91882603D01*
X170979806Y-91917209D01*
X170945729Y-91962183D01*
X170924183Y-92016083D01*
X170916667Y-92077469D01*
X170676611Y-92077469D01*
X170668499Y-92064968D01*
X170649368Y-92049661D01*
X170623524Y-92042571D01*
X170590165Y-92043867D01*
X170558756Y-92053948D01*
X170535828Y-92069987D01*
X170525449Y-92080623D01*
X170507422Y-92099096D01*
X170483153Y-92132970D01*
X170468005Y-92165487D01*
X170465720Y-92174649D01*
X170460994Y-92210604D01*
X170458871Y-92258408D01*
X170459282Y-92314655D01*
X170462155Y-92375939D01*
X170467418Y-92438856D01*
X170475000Y-92500000D01*
X170476752Y-92511896D01*
X170482580Y-92551768D01*
X170487300Y-92584500D01*
X170490465Y-92606977D01*
X170491629Y-92616083D01*
X170488463Y-92613939D01*
X170477192Y-92602203D01*
X170460562Y-92583327D01*
X170438258Y-92559644D01*
X170405918Y-92528550D01*
X170366965Y-92493087D01*
X170324497Y-92455919D01*
X170281609Y-92419705D01*
X170241399Y-92387107D01*
X170206963Y-92360787D01*
X170181397Y-92343406D01*
X170161049Y-92331937D01*
X170118403Y-92313908D01*
X170085017Y-92309513D01*
X170061017Y-92318722D01*
X170046525Y-92341503D01*
X170041667Y-92377827D01*
X169262939Y-92377827D01*
X169207670Y-92366586D01*
X169151090Y-92370569D01*
X169097907Y-92389824D01*
X169050002Y-92423828D01*
X169017428Y-92462383D01*
X169009256Y-92472055D01*
X169003727Y-92480831D01*
X168984247Y-92523760D01*
X168977287Y-92564892D01*
X168983576Y-92600583D01*
X168988349Y-92609786D01*
X169008160Y-92627001D01*
X169035927Y-92631068D01*
X169069974Y-92621995D01*
X169108623Y-92599793D01*
X169123385Y-92590572D01*
X169161332Y-92578028D01*
X169198358Y-92580633D01*
X169233191Y-92597308D01*
X169264559Y-92626977D01*
X169291189Y-92668563D01*
X169311811Y-92720988D01*
X169325151Y-92783175D01*
X169329113Y-92845190D01*
X169325876Y-92915147D01*
X169316064Y-92986016D01*
X169300317Y-93050895D01*
X169292448Y-93073746D01*
X169270587Y-93123260D01*
X169244238Y-93169431D01*
X169216031Y-93207935D01*
X169188600Y-93234448D01*
X169178429Y-93241522D01*
X169147678Y-93257519D01*
X169115899Y-93263958D01*
X169078605Y-93261279D01*
X169031308Y-93249926D01*
X169016589Y-93245812D01*
X168968068Y-93235202D01*
X168931866Y-93233376D01*
X168906284Y-93240722D01*
X168889624Y-93257629D01*
X168880187Y-93284485D01*
X168879205Y-93289975D01*
X168684767Y-93289975D01*
X168684885Y-93289543D01*
X168690772Y-93258403D01*
X168697044Y-93215990D01*
X168704106Y-93160533D01*
X168712364Y-93090258D01*
X168719078Y-93033420D01*
X168727767Y-92963094D01*
X168736889Y-92892044D01*
X168745701Y-92826036D01*
X168753463Y-92770833D01*
X168760888Y-92719236D01*
X168772205Y-92635785D01*
X168780420Y-92566233D01*
X168785520Y-92508968D01*
X168787492Y-92462383D01*
X168786324Y-92424868D01*
X168782002Y-92394814D01*
X168774515Y-92370611D01*
X168763848Y-92350650D01*
X168749990Y-92333321D01*
X168734814Y-92319754D01*
X168707271Y-92308243D01*
X168701391Y-92309340D01*
X168680100Y-92313312D01*
X168654088Y-92334946D01*
X168646885Y-92343767D01*
X168635148Y-92360457D01*
X168625470Y-92379207D01*
X168616425Y-92403570D01*
X168606589Y-92437095D01*
X168594536Y-92483333D01*
X168587374Y-92512453D01*
X168575711Y-92565400D01*
X168565947Y-92619018D01*
X168557648Y-92676504D01*
X168550376Y-92741058D01*
X168543696Y-92815880D01*
X168537173Y-92904166D01*
X168535180Y-92932475D01*
X168531058Y-92986973D01*
X168526995Y-93035797D01*
X168523239Y-93076209D01*
X168520037Y-93105468D01*
X168517636Y-93120833D01*
X168511247Y-93145833D01*
X168432707Y-93145020D01*
X168417625Y-93144695D01*
X168343653Y-93138003D01*
X168263917Y-93122103D01*
X168234054Y-93115149D01*
X168196130Y-93107320D01*
X168164830Y-93101977D01*
X168144899Y-93100000D01*
X168128993Y-93101045D01*
X168095802Y-93109158D01*
X168067708Y-93123230D01*
X168050480Y-93140770D01*
X168046842Y-93155420D01*
X166937198Y-93155420D01*
X166747495Y-93033680D01*
X166502984Y-92865938D01*
X166254167Y-92684561D01*
X166229878Y-92666279D01*
X166151033Y-92606098D01*
X166070030Y-92543104D01*
X166036823Y-92516852D01*
X166700473Y-92516852D01*
X166702203Y-92542443D01*
X166708162Y-92564280D01*
X166719463Y-92588962D01*
X166722948Y-92595527D01*
X166757048Y-92642723D01*
X166805229Y-92688373D01*
X166865223Y-92730840D01*
X166934761Y-92768489D01*
X167011576Y-92799681D01*
X167042491Y-92808641D01*
X167083550Y-92816772D01*
X167123452Y-92821264D01*
X167157300Y-92821606D01*
X167180200Y-92817288D01*
X167193743Y-92805362D01*
X167203858Y-92777740D01*
X167207613Y-92760799D01*
X167208195Y-92758535D01*
X167458972Y-92758535D01*
X167459373Y-92793117D01*
X167461790Y-92821425D01*
X167466570Y-92848077D01*
X167474058Y-92877693D01*
X167479305Y-92895928D01*
X167503397Y-92961154D01*
X167532128Y-93011544D01*
X167566276Y-93048243D01*
X167606620Y-93072395D01*
X167610100Y-93073799D01*
X167659989Y-93085924D01*
X167717631Y-93088048D01*
X167778286Y-93080714D01*
X167837213Y-93064469D01*
X167889671Y-93039856D01*
X167919453Y-93020328D01*
X167946581Y-92998040D01*
X167970602Y-92972036D01*
X167992467Y-92940519D01*
X168013127Y-92901696D01*
X168033533Y-92853770D01*
X168054635Y-92794945D01*
X168077384Y-92723427D01*
X168102729Y-92637420D01*
X168109846Y-92612569D01*
X168132239Y-92532935D01*
X168149925Y-92467097D01*
X168163225Y-92413435D01*
X168172458Y-92370334D01*
X168177944Y-92336174D01*
X168180002Y-92309340D01*
X168178952Y-92288213D01*
X168175114Y-92271177D01*
X168165059Y-92249000D01*
X168142111Y-92223406D01*
X168113450Y-92210851D01*
X168082217Y-92212404D01*
X168051557Y-92229135D01*
X168050402Y-92230116D01*
X168039940Y-92240183D01*
X168030500Y-92252401D01*
X168021471Y-92268528D01*
X168012245Y-92290323D01*
X168002214Y-92319542D01*
X167990767Y-92357945D01*
X167977297Y-92407289D01*
X167961193Y-92469332D01*
X167941848Y-92545833D01*
X167930420Y-92591086D01*
X167911186Y-92665541D01*
X167894735Y-92726238D01*
X167880506Y-92774819D01*
X167867936Y-92812928D01*
X167856466Y-92842206D01*
X167845533Y-92864297D01*
X167834577Y-92880842D01*
X167823036Y-92893484D01*
X167801285Y-92909843D01*
X167766545Y-92922193D01*
X167732693Y-92919506D01*
X167702607Y-92902235D01*
X167679167Y-92870833D01*
X167672781Y-92856355D01*
X167667671Y-92838029D01*
X167664774Y-92814697D01*
X167663645Y-92782481D01*
X167663836Y-92737500D01*
X167665753Y-92687060D01*
X167673234Y-92601181D01*
X167685453Y-92509935D01*
X167701545Y-92419435D01*
X167720648Y-92335792D01*
X167724142Y-92322052D01*
X167736210Y-92265535D01*
X167740846Y-92220963D01*
X167737900Y-92185812D01*
X167727224Y-92157555D01*
X167708667Y-92133666D01*
X167699972Y-92126484D01*
X167673726Y-92117828D01*
X167644295Y-92123312D01*
X167613656Y-92141889D01*
X167583786Y-92172513D01*
X167556662Y-92214137D01*
X167541557Y-92249255D01*
X167525961Y-92298248D01*
X167510679Y-92357623D01*
X167496335Y-92424230D01*
X167483549Y-92494921D01*
X167472943Y-92566545D01*
X167465139Y-92635955D01*
X167460758Y-92700000D01*
X167460242Y-92713062D01*
X167458972Y-92758535D01*
X167208195Y-92758535D01*
X167216587Y-92725890D01*
X167229752Y-92677937D01*
X167246643Y-92618554D01*
X167266792Y-92549353D01*
X167289735Y-92471948D01*
X167315006Y-92387950D01*
X167342138Y-92298972D01*
X167351569Y-92267844D01*
X167367120Y-92214634D01*
X167380445Y-92166641D01*
X167390838Y-92126530D01*
X167397592Y-92096969D01*
X167400000Y-92080623D01*
X167399996Y-92079856D01*
X167395099Y-92055999D01*
X167380001Y-92032527D01*
X167353267Y-92008122D01*
X167313464Y-91981469D01*
X167259160Y-91951250D01*
X167175416Y-91911398D01*
X167100183Y-91884059D01*
X167034718Y-91869847D01*
X166979130Y-91868777D01*
X166933525Y-91880863D01*
X166898012Y-91906117D01*
X166878968Y-91929483D01*
X166854034Y-91979538D01*
X166842807Y-92036739D01*
X166845544Y-92099215D01*
X166862500Y-92165094D01*
X166863934Y-92169079D01*
X166873762Y-92196971D01*
X166880703Y-92217674D01*
X166883334Y-92226959D01*
X166881311Y-92229069D01*
X166868002Y-92236141D01*
X166846364Y-92245188D01*
X166840879Y-92247412D01*
X166798284Y-92274155D01*
X166761355Y-92313969D01*
X166731806Y-92364032D01*
X166711350Y-92421518D01*
X166701703Y-92483604D01*
X166700473Y-92516852D01*
X166036823Y-92516852D01*
X165987889Y-92478166D01*
X165905630Y-92412156D01*
X165824273Y-92345944D01*
X165744838Y-92280401D01*
X165668345Y-92216399D01*
X165595815Y-92154808D01*
X165528267Y-92096499D01*
X165466721Y-92042342D01*
X165412198Y-91993210D01*
X165365717Y-91949972D01*
X165328299Y-91913499D01*
X165300963Y-91884663D01*
X165284730Y-91864335D01*
X165280620Y-91853384D01*
X165282009Y-91851757D01*
X165287974Y-91849421D01*
X165299590Y-91847462D01*
X165318081Y-91845850D01*
X165344671Y-91844554D01*
X165380583Y-91843542D01*
X165427041Y-91842784D01*
X165485270Y-91842249D01*
X165556494Y-91841904D01*
X165641936Y-91841721D01*
X165742820Y-91841666D01*
X165825327Y-91841621D01*
X165915865Y-91841421D01*
X165991719Y-91841037D01*
X166053996Y-91840445D01*
X166103804Y-91839618D01*
X166142251Y-91838532D01*
X166170445Y-91837160D01*
X166189493Y-91835478D01*
X166200504Y-91833460D01*
X166204585Y-91831081D01*
X166204056Y-91828304D01*
X166197588Y-91812317D01*
X166184461Y-91783629D01*
X166165362Y-91743636D01*
X166140978Y-91693739D01*
X166111996Y-91635337D01*
X166079101Y-91569827D01*
X166042982Y-91498610D01*
X166004324Y-91423084D01*
X165985316Y-91386057D01*
X165947622Y-91312281D01*
X165912673Y-91243422D01*
X165881174Y-91180891D01*
X165853825Y-91126100D01*
X165831331Y-91080460D01*
X165814394Y-91045385D01*
X165803716Y-91022286D01*
X165800000Y-91012574D01*
X165800302Y-91007938D01*
X165805585Y-90998526D01*
X165818565Y-90997255D01*
X165840689Y-91004539D01*
X165873403Y-91020791D01*
X165918153Y-91046427D01*
X165978600Y-91081469D01*
X166104937Y-91150084D01*
X166242885Y-91219698D01*
X166389324Y-91288902D01*
X166541130Y-91356288D01*
X166695183Y-91420447D01*
X166848361Y-91479971D01*
X166997541Y-91533451D01*
X167240208Y-91611294D01*
X167531148Y-91690878D01*
X167819653Y-91754725D01*
X168105441Y-91802827D01*
X168388227Y-91835177D01*
X168667729Y-91851768D01*
X168943663Y-91852592D01*
X169215746Y-91837642D01*
X169483693Y-91806909D01*
X169747223Y-91760387D01*
X170006051Y-91698068D01*
X170259893Y-91619944D01*
X170297539Y-91606959D01*
X170353323Y-91587220D01*
X170405286Y-91568023D01*
X170456119Y-91548259D01*
X170508512Y-91526814D01*
X170565156Y-91502578D01*
X170628742Y-91474440D01*
X170701960Y-91441287D01*
X170787500Y-91402009D01*
X170867781Y-91365284D01*
X171096369Y-91264359D01*
X171314566Y-91173814D01*
X171523946Y-91093169D01*
X171726084Y-91021945D01*
X171922554Y-90959660D01*
X172114931Y-90905834D01*
X172304790Y-90859989D01*
X172493705Y-90821643D01*
X172683250Y-90790317D01*
X172875000Y-90765530D01*
X172906662Y-90762566D01*
X172967469Y-90758865D01*
X173038700Y-90756328D01*
X173116971Y-90754936D01*
X173198901Y-90754669D01*
X173281107Y-90755506D01*
X173360206Y-90757428D01*
X173432816Y-90760414D01*
X173495555Y-90764445D01*
X173545039Y-90769500D01*
X173571242Y-90773140D01*
X173679337Y-90791201D01*
X173784614Y-90813480D01*
X173883614Y-90839101D01*
X173972881Y-90867191D01*
X174048954Y-90896876D01*
X174068890Y-90905569D01*
X174087948Y-90913577D01*
X174096317Y-90916666D01*
X174098810Y-90910376D01*
X174101530Y-90893750D01*
X174104169Y-90881239D01*
X174113270Y-90872031D01*
X174133594Y-90868355D01*
X174147094Y-90868128D01*
X174161074Y-90871441D01*
X174174705Y-90880347D01*
X174189614Y-90896676D01*
X174207427Y-90922255D01*
X174229772Y-90958913D01*
X174258276Y-91008479D01*
X174309424Y-91101328D01*
X174376027Y-91229238D01*
X174444895Y-91368506D01*
X174514884Y-91516508D01*
X174584853Y-91670618D01*
X174653660Y-91828210D01*
X174720163Y-91986658D01*
X174783221Y-92143338D01*
X174841690Y-92295623D01*
X174866413Y-92363719D01*
X174894429Y-92440888D01*
G37*
D14*
%TO.C,C1*%
X165251400Y-63678800D02*
X165251400Y-64468900D01*
X165251400Y-65711400D02*
X165251400Y-64921300D01*
X166096200Y-63526400D02*
X165403800Y-63526400D01*
X166096200Y-65863800D02*
X165403800Y-65863800D01*
X166248600Y-64468900D02*
X166248600Y-63678800D01*
X166248600Y-64921300D02*
X166248600Y-65711400D01*
X165251400Y-63678800D02*
G75*
G02*
X165403800Y-63526400I152400J0D01*
G01*
X165403800Y-65863800D02*
G75*
G02*
X165251400Y-65711400I0J152400D01*
G01*
X166096200Y-63526400D02*
G75*
G02*
X166248600Y-63678800I0J-152400D01*
G01*
X166248600Y-65711400D02*
G75*
G02*
X166096200Y-65863800I-152400J0D01*
G01*
%TD*%
M02*
