M48
; DRILL file {KiCad 9.0.2} date 2025-11-28T15:39:46-0500
; FORMAT={-:-/ absolute / metric / decimal}
; #@! TF.CreationDate,2025-11-28T15:39:46-05:00
; #@! TF.GenerationSoftware,Kicad,Pcbnew,9.0.2
; #@! TF.FileFunction,Plated,1,2,PTH
FMAT,2
METRIC
; #@! TA.AperFunction,Plated,PTH,ViaDrill
T1C0.300
; #@! TA.AperFunction,Plated,PTH,ComponentDrill
T2C0.600
; #@! TA.AperFunction,Plated,PTH,ComponentDrill
T3C0.750
; #@! TA.AperFunction,Plated,PTH,ComponentDrill
T4C1.000
%
G90
G05
T1
X140.575Y-91.25
X142.75Y-64.075
X143.075Y-87.075
X148.075Y-73.775
X148.2Y-64.1
X148.409Y-62.312
X148.825Y-66.737
X148.945Y-69.23
X148.971Y-70.954
X149.06Y-60.386
X149.775Y-85.661
X149.82Y-86.555
X149.925Y-60.4
X149.95Y-69.475
X150.05Y-68.625
X150.5Y-66.45
X150.53Y-67.985
X150.675Y-87.15
X150.75Y-89.425
X151.15Y-84.15
X151.625Y-60.95
X152.575Y-79.45
X152.575Y-84.95
X152.575Y-86.05
X152.906Y-67.985
X153.4Y-68.625
X153.6Y-87.075
X153.775Y-75.05
X154.025Y-71.725
X155.45Y-79.6
X155.756Y-91.412
X156.0Y-89.575
X156.225Y-88.475
X156.9Y-87.425
X157.531Y-80.719
X158.275Y-81.575
X158.575Y-67.325
X158.92Y-82.105
X159.975Y-83.425
X160.774Y-83.4
X160.975Y-74.175
X161.574Y-83.4
X161.672Y-79.745
X162.225Y-70.025
X162.375Y-83.357
X162.75Y-87.375
X162.8Y-91.325
X162.95Y-81.775
X163.175Y-83.425
X164.042Y-86.932
X164.424Y-81.075
X165.088Y-85.95
X165.375Y-92.775
X165.55Y-59.475
X165.55Y-87.575
X165.75Y-86.4
X166.1Y-67.75
X166.85Y-62.425
X166.888Y-74.238
X166.9Y-76.0
X167.3Y-68.95
X167.575Y-86.367
X167.65Y-65.875
X167.71Y-59.65
X167.85Y-67.4
X168.5Y-80.975
X168.834Y-76.596
X170.05Y-64.35
X170.15Y-67.425
X170.255Y-72.051
X170.475Y-88.625
X171.232Y-73.356
X171.975Y-79.55
X172.45Y-93.9
X172.6Y-77.825
X173.05Y-72.536
X173.85Y-85.25
X175.075Y-78.75
X175.45Y-60.025
X175.95Y-91.175
X177.4Y-88.9
X177.4Y-90.95
X177.675Y-66.4
X177.7Y-71.825
X178.184Y-68.55
X178.55Y-90.825
X178.575Y-89.75
X180.925Y-72.95
X180.925Y-76.55
X181.75Y-87.2
X182.825Y-85.425
X182.975Y-72.475
X184.925Y-66.275
X185.85Y-91.0
T3
X180.95Y-82.725
X180.95Y-84.725
T4
X153.275Y-60.375
X153.275Y-62.915
X155.815Y-60.375
X155.815Y-62.915
X158.355Y-60.375
X158.355Y-62.915
X160.895Y-60.375
X160.895Y-62.915
X163.435Y-60.375
X163.435Y-62.915
X177.225Y-82.025
X177.225Y-84.565
X177.225Y-87.105
T2
X179.845Y-70.36G85X180.945Y-70.36
G05
X179.845Y-79.0G85X180.945Y-79.0
G05
X184.275Y-70.36G85X184.875Y-70.36
G05
X184.275Y-79.0G85X184.875Y-79.0
G05
M30
