%TF.GenerationSoftware,KiCad,Pcbnew,9.0.2*%
%TF.CreationDate,2025-11-28T15:39:44-05:00*%
%TF.ProjectId,hackathonproject,6861636b-6174-4686-9f6e-70726f6a6563,rev?*%
%TF.SameCoordinates,Original*%
%TF.FileFunction,Legend,Top*%
%TF.FilePolarity,Positive*%
%FSLAX46Y46*%
G04 Gerber Fmt 4.6, Leading zero omitted, Abs format (unit mm)*
G04 Created by KiCad (PCBNEW 9.0.2) date 2025-11-28 15:39:44*
%MOMM*%
%LPD*%
G01*
G04 APERTURE LIST*
%ADD10C,0.150000*%
%ADD11C,0.152400*%
%ADD12C,0.120000*%
%ADD13C,0.152000*%
%ADD14C,0.200000*%
G04 APERTURE END LIST*
D10*
X174237295Y-65871428D02*
X174237295Y-66328571D01*
X174237295Y-66099999D02*
X173437295Y-66099999D01*
X173437295Y-66099999D02*
X173551580Y-66176190D01*
X173551580Y-66176190D02*
X173627771Y-66252380D01*
X173627771Y-66252380D02*
X173665866Y-66328571D01*
X180312295Y-65871428D02*
X180312295Y-66328571D01*
X180312295Y-66099999D02*
X179512295Y-66099999D01*
X179512295Y-66099999D02*
X179626580Y-66176190D01*
X179626580Y-66176190D02*
X179702771Y-66252380D01*
X179702771Y-66252380D02*
X179740866Y-66328571D01*
X168122295Y-65871428D02*
X168122295Y-66328571D01*
X168122295Y-66099999D02*
X167322295Y-66099999D01*
X167322295Y-66099999D02*
X167436580Y-66176190D01*
X167436580Y-66176190D02*
X167512771Y-66252380D01*
X167512771Y-66252380D02*
X167550866Y-66328571D01*
D11*
%TO.C,C9*%
X178051300Y-90043900D02*
X178051300Y-89253800D01*
X178051300Y-90496300D02*
X178051300Y-91286400D01*
X178203700Y-89101400D02*
X178896100Y-89101400D01*
X178203700Y-91438800D02*
X178896100Y-91438800D01*
X179048500Y-89253800D02*
X179048500Y-90043900D01*
X179048500Y-91286400D02*
X179048500Y-90496300D01*
X178051300Y-89253800D02*
G75*
G02*
X178203700Y-89101400I152400J0D01*
G01*
X178203700Y-91438800D02*
G75*
G02*
X178051300Y-91286400I0J152400D01*
G01*
X178896100Y-89101400D02*
G75*
G02*
X179048500Y-89253800I0J-152400D01*
G01*
X179048500Y-91286400D02*
G75*
G02*
X178896100Y-91438800I-152400J0D01*
G01*
%TO.C,R2*%
X166476400Y-81398000D02*
X167473600Y-81398000D01*
X166476400Y-82116000D02*
X166476400Y-81398000D01*
X166476400Y-82568400D02*
X166476400Y-83286400D01*
X166476400Y-83286400D02*
X167473600Y-83286400D01*
X167473600Y-81398000D02*
X167473600Y-82116000D01*
X167473600Y-83286400D02*
X167473600Y-82568400D01*
%TO.C,R9*%
X184163600Y-87576400D02*
X184163600Y-88573600D01*
X184163600Y-88573600D02*
X184881600Y-88573600D01*
X184881600Y-87576400D02*
X184163600Y-87576400D01*
X185334000Y-87576400D02*
X186052000Y-87576400D01*
X186052000Y-87576400D02*
X186052000Y-88573600D01*
X186052000Y-88573600D02*
X185334000Y-88573600D01*
D12*
%TO.C,D5*%
X172725000Y-65600000D02*
X172725000Y-58600000D01*
X172725000Y-65600000D02*
X178225000Y-65600000D01*
X176375000Y-59400000D02*
X174575000Y-59400000D01*
X176375000Y-64800000D02*
X174575000Y-64800000D01*
X177775000Y-58600000D02*
X172725000Y-58600000D01*
X178225000Y-59050000D02*
X177775000Y-58600000D01*
X178225000Y-65600000D02*
X178225000Y-59050000D01*
D11*
%TO.C,C7*%
X171926400Y-89853700D02*
X171926400Y-89063600D01*
X171926400Y-90306100D02*
X171926400Y-91096200D01*
X172078800Y-88911200D02*
X172771200Y-88911200D01*
X172078800Y-91248600D02*
X172771200Y-91248600D01*
X172923600Y-89063600D02*
X172923600Y-89853700D01*
X172923600Y-91096200D02*
X172923600Y-90306100D01*
X171926400Y-89063600D02*
G75*
G02*
X172078800Y-88911200I152400J0D01*
G01*
X172078800Y-91248600D02*
G75*
G02*
X171926400Y-91096200I0J152400D01*
G01*
X172771200Y-88911200D02*
G75*
G02*
X172923600Y-89063600I0J-152400D01*
G01*
X172923600Y-91096200D02*
G75*
G02*
X172771200Y-91248600I-152400J0D01*
G01*
%TO.C,C18*%
X173801400Y-66928800D02*
X173801400Y-67718900D01*
X173801400Y-68961400D02*
X173801400Y-68171300D01*
X174646200Y-66776400D02*
X173953800Y-66776400D01*
X174646200Y-69113800D02*
X173953800Y-69113800D01*
X174798600Y-67718900D02*
X174798600Y-66928800D01*
X174798600Y-68171300D02*
X174798600Y-68961400D01*
X173801400Y-66928800D02*
G75*
G02*
X173953800Y-66776400I152400J0D01*
G01*
X173953800Y-69113800D02*
G75*
G02*
X173801400Y-68961400I0J152400D01*
G01*
X174646200Y-66776400D02*
G75*
G02*
X174798600Y-66928800I0J-152400D01*
G01*
X174798600Y-68961400D02*
G75*
G02*
X174646200Y-69113800I-152400J0D01*
G01*
%TO.C,C4*%
X176376400Y-67693900D02*
X176376400Y-66903800D01*
X176376400Y-68146300D02*
X176376400Y-68936400D01*
X176528800Y-66751400D02*
X177221200Y-66751400D01*
X176528800Y-69088800D02*
X177221200Y-69088800D01*
X177373600Y-66903800D02*
X177373600Y-67693900D01*
X177373600Y-68936400D02*
X177373600Y-68146300D01*
X176376400Y-66903800D02*
G75*
G02*
X176528800Y-66751400I152400J0D01*
G01*
X176528800Y-69088800D02*
G75*
G02*
X176376400Y-68936400I0J152400D01*
G01*
X177221200Y-66751400D02*
G75*
G02*
X177373600Y-66903800I0J-152400D01*
G01*
X177373600Y-68936400D02*
G75*
G02*
X177221200Y-69088800I-152400J0D01*
G01*
%TO.C,C17*%
X166501400Y-77478700D02*
X166501400Y-76688600D01*
X166501400Y-77931100D02*
X166501400Y-78721200D01*
X166653800Y-76536200D02*
X167346200Y-76536200D01*
X166653800Y-78873600D02*
X167346200Y-78873600D01*
X167498600Y-76688600D02*
X167498600Y-77478700D01*
X167498600Y-78721200D02*
X167498600Y-77931100D01*
X166501400Y-76688600D02*
G75*
G02*
X166653800Y-76536200I152400J0D01*
G01*
X166653800Y-78873600D02*
G75*
G02*
X166501400Y-78721200I0J152400D01*
G01*
X167346200Y-76536200D02*
G75*
G02*
X167498600Y-76688600I0J-152400D01*
G01*
X167498600Y-78721200D02*
G75*
G02*
X167346200Y-78873600I-152400J0D01*
G01*
%TO.C,R3*%
X176298000Y-77701400D02*
X176298000Y-78698600D01*
X176298000Y-78698600D02*
X177016000Y-78698600D01*
X177016000Y-77701400D02*
X176298000Y-77701400D01*
X177468400Y-77701400D02*
X178186400Y-77701400D01*
X178186400Y-77701400D02*
X178186400Y-78698600D01*
X178186400Y-78698600D02*
X177468400Y-78698600D01*
%TO.C,R10*%
X167801400Y-76954200D02*
X167801400Y-77672200D01*
X167801400Y-78842600D02*
X167801400Y-78124600D01*
X168798600Y-76954200D02*
X167801400Y-76954200D01*
X168798600Y-77672200D02*
X168798600Y-76954200D01*
X168798600Y-78124600D02*
X168798600Y-78842600D01*
X168798600Y-78842600D02*
X167801400Y-78842600D01*
%TO.C,R6*%
X168026400Y-88898000D02*
X169023600Y-88898000D01*
X168026400Y-89616000D02*
X168026400Y-88898000D01*
X168026400Y-90068400D02*
X168026400Y-90786400D01*
X168026400Y-90786400D02*
X169023600Y-90786400D01*
X169023600Y-88898000D02*
X169023600Y-89616000D01*
X169023600Y-90786400D02*
X169023600Y-90068400D01*
%TO.C,C8*%
X175851400Y-79796200D02*
X175851400Y-79103800D01*
X176003800Y-78951400D02*
X176793900Y-78951400D01*
X176793900Y-79948600D02*
X176003800Y-79948600D01*
X177246300Y-79948600D02*
X178036400Y-79948600D01*
X178036400Y-78951400D02*
X177246300Y-78951400D01*
X178188800Y-79796200D02*
X178188800Y-79103800D01*
X175851400Y-79103800D02*
G75*
G02*
X176003800Y-78951400I152400J0D01*
G01*
X176003800Y-79948600D02*
G75*
G02*
X175851400Y-79796200I0J152400D01*
G01*
X178036400Y-78951400D02*
G75*
G02*
X178188800Y-79103800I0J-152400D01*
G01*
X178188800Y-79796200D02*
G75*
G02*
X178036400Y-79948600I-152400J0D01*
G01*
%TO.C,R12*%
X175723000Y-93551400D02*
X175723000Y-94548600D01*
X175723000Y-94548600D02*
X176441000Y-94548600D01*
X176441000Y-93551400D02*
X175723000Y-93551400D01*
X176893400Y-93551400D02*
X177611400Y-93551400D01*
X177611400Y-93551400D02*
X177611400Y-94548600D01*
X177611400Y-94548600D02*
X176893400Y-94548600D01*
D12*
%TO.C,J4*%
X175845000Y-80645000D02*
X177225000Y-80645000D01*
X175845000Y-82025000D02*
X175845000Y-80645000D01*
X175845000Y-83295000D02*
X175845000Y-88485000D01*
X175845000Y-83295000D02*
X178605000Y-83295000D01*
X175845000Y-88485000D02*
X178605000Y-88485000D01*
X178605000Y-83295000D02*
X178605000Y-88485000D01*
D11*
%TO.C,C12*%
X148971200Y-63096200D02*
X148971200Y-62403800D01*
X149123600Y-62251400D02*
X149913700Y-62251400D01*
X149913700Y-63248600D02*
X149123600Y-63248600D01*
X150366100Y-63248600D02*
X151156200Y-63248600D01*
X151156200Y-62251400D02*
X150366100Y-62251400D01*
X151308600Y-63096200D02*
X151308600Y-62403800D01*
X148971200Y-62403800D02*
G75*
G02*
X149123600Y-62251400I152400J0D01*
G01*
X149123600Y-63248600D02*
G75*
G02*
X148971200Y-63096200I0J152400D01*
G01*
X151156200Y-62251400D02*
G75*
G02*
X151308600Y-62403800I0J-152400D01*
G01*
X151308600Y-63096200D02*
G75*
G02*
X151156200Y-63248600I-152400J0D01*
G01*
D12*
%TO.C,C14*%
X174512164Y-93690000D02*
X174727836Y-93690000D01*
X174512164Y-94410000D02*
X174727836Y-94410000D01*
%TO.C,D3*%
X179340000Y-92315000D02*
X179340000Y-94585000D01*
X179340000Y-94585000D02*
X183225000Y-94585000D01*
X183225000Y-92315000D02*
X179340000Y-92315000D01*
D11*
%TO.C,C3*%
X165226400Y-62228800D02*
X165226400Y-63018900D01*
X165226400Y-64261400D02*
X165226400Y-63471300D01*
X166071200Y-62076400D02*
X165378800Y-62076400D01*
X166071200Y-64413800D02*
X165378800Y-64413800D01*
X166223600Y-63018900D02*
X166223600Y-62228800D01*
X166223600Y-63471300D02*
X166223600Y-64261400D01*
X165226400Y-62228800D02*
G75*
G02*
X165378800Y-62076400I152400J0D01*
G01*
X165378800Y-64413800D02*
G75*
G02*
X165226400Y-64261400I0J152400D01*
G01*
X166071200Y-62076400D02*
G75*
G02*
X166223600Y-62228800I0J-152400D01*
G01*
X166223600Y-64261400D02*
G75*
G02*
X166071200Y-64413800I-152400J0D01*
G01*
%TO.C,C2*%
X170626400Y-89843900D02*
X170626400Y-89053800D01*
X170626400Y-90296300D02*
X170626400Y-91086400D01*
X170778800Y-88901400D02*
X171471200Y-88901400D01*
X170778800Y-91238800D02*
X171471200Y-91238800D01*
X171623600Y-89053800D02*
X171623600Y-89843900D01*
X171623600Y-91086400D02*
X171623600Y-90296300D01*
X170626400Y-89053800D02*
G75*
G02*
X170778800Y-88901400I152400J0D01*
G01*
X170778800Y-91238800D02*
G75*
G02*
X170626400Y-91086400I0J152400D01*
G01*
X171471200Y-88901400D02*
G75*
G02*
X171623600Y-89053800I0J-152400D01*
G01*
X171623600Y-91086400D02*
G75*
G02*
X171471200Y-91238800I-152400J0D01*
G01*
D12*
%TO.C,J5*%
X179490000Y-80665000D02*
X179490000Y-81585000D01*
X179490000Y-81585000D02*
X181090000Y-81585000D01*
X179490000Y-85865000D02*
X179490000Y-86785000D01*
X179490000Y-86785000D02*
X187310000Y-86785000D01*
X181090000Y-80665000D02*
X181090000Y-81585000D01*
X181090000Y-81585000D02*
X181090000Y-81865000D01*
X181090000Y-85585000D02*
X179875000Y-85585000D01*
X181090000Y-85585000D02*
X181090000Y-85865000D01*
X181090000Y-85865000D02*
X179490000Y-85865000D01*
X181090000Y-86785000D02*
X181090000Y-85865000D01*
X182950000Y-83225000D02*
X187310000Y-83225000D01*
X182950000Y-84225000D02*
X182950000Y-83225000D01*
X183450000Y-81425000D02*
X185050000Y-81425000D01*
X183450000Y-82425000D02*
X183450000Y-81425000D01*
X183450000Y-85025000D02*
X183450000Y-86025000D01*
X183450000Y-86025000D02*
X185050000Y-86025000D01*
X185050000Y-81425000D02*
X185050000Y-82425000D01*
X185050000Y-82425000D02*
X183450000Y-82425000D01*
X185050000Y-85025000D02*
X183450000Y-85025000D01*
X185050000Y-85025000D02*
X187310000Y-85025000D01*
X185050000Y-85525000D02*
X187310000Y-85525000D01*
X185050000Y-86025000D02*
X185050000Y-85025000D01*
X187310000Y-80665000D02*
X179490000Y-80665000D01*
X187310000Y-84225000D02*
X182950000Y-84225000D01*
X187310000Y-86785000D02*
X187310000Y-80665000D01*
%TO.C,D2*%
X179340000Y-89090000D02*
X179340000Y-91360000D01*
X179340000Y-91360000D02*
X183225000Y-91360000D01*
X183225000Y-89090000D02*
X179340000Y-89090000D01*
%TO.C,J3*%
X140725000Y-62090000D02*
X141365000Y-62090000D01*
X140775000Y-59370000D02*
X143475000Y-59370000D01*
X141365000Y-62090000D02*
X141365000Y-62720000D01*
X143525000Y-62090000D02*
X142885000Y-62090000D01*
D11*
%TO.C,R7*%
X169326400Y-88898000D02*
X170323600Y-88898000D01*
X169326400Y-89616000D02*
X169326400Y-88898000D01*
X169326400Y-90068400D02*
X169326400Y-90786400D01*
X169326400Y-90786400D02*
X170323600Y-90786400D01*
X170323600Y-88898000D02*
X170323600Y-89616000D01*
X170323600Y-90786400D02*
X170323600Y-90068400D01*
%TO.C,C5*%
X175126400Y-67693900D02*
X175126400Y-66903800D01*
X175126400Y-68146300D02*
X175126400Y-68936400D01*
X175278800Y-66751400D02*
X175971200Y-66751400D01*
X175278800Y-69088800D02*
X175971200Y-69088800D01*
X176123600Y-66903800D02*
X176123600Y-67693900D01*
X176123600Y-68936400D02*
X176123600Y-68146300D01*
X175126400Y-66903800D02*
G75*
G02*
X175278800Y-66751400I152400J0D01*
G01*
X175278800Y-69088800D02*
G75*
G02*
X175126400Y-68936400I0J152400D01*
G01*
X175971200Y-66751400D02*
G75*
G02*
X176123600Y-66903800I0J-152400D01*
G01*
X176123600Y-68936400D02*
G75*
G02*
X175971200Y-69088800I-152400J0D01*
G01*
D12*
%TO.C,U9*%
X155815000Y-69015000D02*
X155815000Y-70990000D01*
X155815000Y-79335000D02*
X155815000Y-77360000D01*
X157790000Y-69015000D02*
X155815000Y-69015000D01*
X157790000Y-79335000D02*
X155815000Y-79335000D01*
X164160000Y-69015000D02*
X166135000Y-69015000D01*
X164160000Y-79335000D02*
X165835000Y-79335000D01*
X166135000Y-69015000D02*
X166135000Y-70990000D01*
X166135000Y-77360000D02*
X166135000Y-79095000D01*
X166375000Y-79665000D02*
X165895000Y-79665000D01*
X166135000Y-79335000D01*
X166375000Y-79665000D01*
G36*
X166375000Y-79665000D02*
G01*
X165895000Y-79665000D01*
X166135000Y-79335000D01*
X166375000Y-79665000D01*
G37*
D11*
%TO.C,C6*%
X153951400Y-81778700D02*
X153951400Y-80988600D01*
X153951400Y-82231100D02*
X153951400Y-83021200D01*
X154103800Y-80836200D02*
X154796200Y-80836200D01*
X154103800Y-83173600D02*
X154796200Y-83173600D01*
X154948600Y-80988600D02*
X154948600Y-81778700D01*
X154948600Y-83021200D02*
X154948600Y-82231100D01*
X153951400Y-80988600D02*
G75*
G02*
X154103800Y-80836200I152400J0D01*
G01*
X154103800Y-83173600D02*
G75*
G02*
X153951400Y-83021200I0J152400D01*
G01*
X154796200Y-80836200D02*
G75*
G02*
X154948600Y-80988600I0J-152400D01*
G01*
X154948600Y-83021200D02*
G75*
G02*
X154796200Y-83173600I-152400J0D01*
G01*
D12*
%TO.C,U5*%
X167640000Y-73000000D02*
X167640000Y-71050000D01*
X167640000Y-73000000D02*
X167640000Y-74950000D01*
X172760000Y-73000000D02*
X172760000Y-71050000D01*
X172760000Y-73000000D02*
X172760000Y-74950000D01*
X167735000Y-75700000D02*
X167405000Y-75940000D01*
X167405000Y-75460000D01*
X167735000Y-75700000D01*
G36*
X167735000Y-75700000D02*
G01*
X167405000Y-75940000D01*
X167405000Y-75460000D01*
X167735000Y-75700000D01*
G37*
%TO.C,U11*%
X150965000Y-75442500D02*
X150965000Y-73442500D01*
X153585000Y-75442500D02*
X153585000Y-73442500D01*
X151265000Y-75952500D02*
X150985000Y-75672500D01*
X151265000Y-75672500D01*
X151265000Y-75952500D01*
G36*
X151265000Y-75952500D02*
G01*
X150985000Y-75672500D01*
X151265000Y-75672500D01*
X151265000Y-75952500D01*
G37*
D11*
%TO.C,U7*%
X174373700Y-89098700D02*
X176872500Y-89098700D01*
D13*
X174373700Y-89354900D02*
X174373700Y-89098700D01*
X174373700Y-93251100D02*
X174373700Y-92995100D01*
D11*
X174373700Y-93251100D02*
X176872500Y-93251100D01*
X177526100Y-89098700D02*
X175027300Y-89098700D01*
D13*
X177526100Y-89098700D02*
X177526100Y-89354900D01*
X177526100Y-92995100D02*
X177526100Y-93251100D01*
D11*
X177526100Y-93251100D02*
X175027300Y-93251100D01*
D14*
X174018000Y-89142900D02*
G75*
G02*
X173817800Y-89142900I-100100J0D01*
G01*
X173817800Y-89142900D02*
G75*
G02*
X174018000Y-89142900I100100J0D01*
G01*
D12*
%TO.C,D6*%
X178800000Y-65600000D02*
X178800000Y-58600000D01*
X178800000Y-65600000D02*
X184300000Y-65600000D01*
X182450000Y-59400000D02*
X180650000Y-59400000D01*
X182450000Y-64800000D02*
X180650000Y-64800000D01*
X183850000Y-58600000D02*
X178800000Y-58600000D01*
X184300000Y-59050000D02*
X183850000Y-58600000D01*
X184300000Y-65600000D02*
X184300000Y-59050000D01*
%TO.C,J1*%
X178800000Y-77480000D02*
X178800000Y-78280000D01*
X181720000Y-69980000D02*
X183500000Y-69980000D01*
X181720000Y-79380000D02*
X183500000Y-79380000D01*
D11*
%TO.C,C13*%
X169101400Y-77859500D02*
X169101400Y-77069400D01*
X169101400Y-78311900D02*
X169101400Y-79102000D01*
X169253800Y-76917000D02*
X169946200Y-76917000D01*
X169253800Y-79254400D02*
X169946200Y-79254400D01*
X170098600Y-77069400D02*
X170098600Y-77859500D01*
X170098600Y-79102000D02*
X170098600Y-78311900D01*
X169101400Y-77069400D02*
G75*
G02*
X169253800Y-76917000I152400J0D01*
G01*
X169253800Y-79254400D02*
G75*
G02*
X169101400Y-79102000I0J152400D01*
G01*
X169946200Y-76917000D02*
G75*
G02*
X170098600Y-77069400I0J-152400D01*
G01*
X170098600Y-79102000D02*
G75*
G02*
X169946200Y-79254400I-152400J0D01*
G01*
%TO.C,R8*%
X181963600Y-87576400D02*
X181963600Y-88573600D01*
X181963600Y-88573600D02*
X182681600Y-88573600D01*
X182681600Y-87576400D02*
X181963600Y-87576400D01*
X183134000Y-87576400D02*
X183852000Y-87576400D01*
X183852000Y-87576400D02*
X183852000Y-88573600D01*
X183852000Y-88573600D02*
X183134000Y-88573600D01*
%TO.C,R11*%
X170376400Y-76938600D02*
X171373600Y-76938600D01*
X170376400Y-77656600D02*
X170376400Y-76938600D01*
X170376400Y-78109000D02*
X170376400Y-78827000D01*
X170376400Y-78827000D02*
X171373600Y-78827000D01*
X171373600Y-76938600D02*
X171373600Y-77656600D01*
X171373600Y-78827000D02*
X171373600Y-78109000D01*
D12*
%TO.C,U10*%
X143890000Y-67165000D02*
X143890000Y-67640000D01*
X143890000Y-71385000D02*
X143890000Y-70910000D01*
X144365000Y-67165000D02*
X143890000Y-67165000D01*
X144365000Y-71385000D02*
X143890000Y-71385000D01*
X147635000Y-67165000D02*
X148110000Y-67165000D01*
X147635000Y-71385000D02*
X147810000Y-71385000D01*
X148110000Y-67165000D02*
X148110000Y-67640000D01*
X148110000Y-70910000D02*
X148110000Y-71145000D01*
X148350000Y-71715000D02*
X147870000Y-71715000D01*
X148110000Y-71385000D01*
X148350000Y-71715000D01*
G36*
X148350000Y-71715000D02*
G01*
X147870000Y-71715000D01*
X148110000Y-71385000D01*
X148350000Y-71715000D01*
G37*
D11*
%TO.C,R5*%
X177673000Y-68051400D02*
X177673000Y-69048600D01*
X177673000Y-69048600D02*
X178391000Y-69048600D01*
X178391000Y-68051400D02*
X177673000Y-68051400D01*
X178843400Y-68051400D02*
X179561400Y-68051400D01*
X179561400Y-68051400D02*
X179561400Y-69048600D01*
X179561400Y-69048600D02*
X178843400Y-69048600D01*
D12*
%TO.C,SW1*%
X155930000Y-80080000D02*
X160070000Y-80080000D01*
X155930000Y-80380000D02*
X155930000Y-80080000D01*
X155930000Y-83220000D02*
X155930000Y-82920000D01*
X160070000Y-80080000D02*
X160070000Y-80380000D01*
X160070000Y-82920000D02*
X160070000Y-83220000D01*
X160070000Y-83220000D02*
X155930000Y-83220000D01*
D11*
%TO.C,R14*%
X148651400Y-71988600D02*
X149648600Y-71988600D01*
X148651400Y-72706600D02*
X148651400Y-71988600D01*
X148651400Y-73159000D02*
X148651400Y-73877000D01*
X148651400Y-73877000D02*
X149648600Y-73877000D01*
X149648600Y-71988600D02*
X149648600Y-72706600D01*
X149648600Y-73877000D02*
X149648600Y-73159000D01*
%TO.C,R1*%
X166501400Y-79248000D02*
X167498600Y-79248000D01*
X166501400Y-79966000D02*
X166501400Y-79248000D01*
X166501400Y-80418400D02*
X166501400Y-81136400D01*
X166501400Y-81136400D02*
X167498600Y-81136400D01*
X167498600Y-79248000D02*
X167498600Y-79966000D01*
X167498600Y-81136400D02*
X167498600Y-80418400D01*
D12*
%TO.C,U2*%
X173235000Y-73025000D02*
X173235000Y-71075000D01*
X173235000Y-73025000D02*
X173235000Y-74975000D01*
X178355000Y-73025000D02*
X178355000Y-71075000D01*
X178355000Y-73025000D02*
X178355000Y-74975000D01*
X173330000Y-75725000D02*
X173000000Y-75965000D01*
X173000000Y-75485000D01*
X173330000Y-75725000D01*
G36*
X173330000Y-75725000D02*
G01*
X173000000Y-75965000D01*
X173000000Y-75485000D01*
X173330000Y-75725000D01*
G37*
D11*
%TO.C,C15*%
X153951400Y-78403800D02*
X153951400Y-79193900D01*
X153951400Y-80436400D02*
X153951400Y-79646300D01*
X154796200Y-78251400D02*
X154103800Y-78251400D01*
X154796200Y-80588800D02*
X154103800Y-80588800D01*
X154948600Y-79193900D02*
X154948600Y-78403800D01*
X154948600Y-79646300D02*
X154948600Y-80436400D01*
X153951400Y-78403800D02*
G75*
G02*
X154103800Y-78251400I152400J0D01*
G01*
X154103800Y-80588800D02*
G75*
G02*
X153951400Y-80436400I0J152400D01*
G01*
X154796200Y-78251400D02*
G75*
G02*
X154948600Y-78403800I0J-152400D01*
G01*
X154948600Y-80436400D02*
G75*
G02*
X154796200Y-80588800I-152400J0D01*
G01*
D12*
%TO.C,U3*%
X140365000Y-78340000D02*
X140365000Y-78790000D01*
X140365000Y-78340000D02*
X152785000Y-78340000D01*
X140365000Y-86710000D02*
X140365000Y-88390000D01*
X140365000Y-94110000D02*
X140365000Y-94560000D01*
X140365000Y-94560000D02*
X152785000Y-94560000D01*
X152785000Y-78340000D02*
X152785000Y-78790000D01*
X152785000Y-86710000D02*
X152785000Y-88390000D01*
X152785000Y-94110000D02*
X152785000Y-94550000D01*
X139875000Y-78790000D02*
X139635000Y-78460000D01*
X140115000Y-78460000D01*
X139875000Y-78790000D01*
G36*
X139875000Y-78790000D02*
G01*
X139635000Y-78460000D01*
X140115000Y-78460000D01*
X139875000Y-78790000D01*
G37*
%TO.C,U4*%
X168190000Y-82390000D02*
X169450000Y-82390000D01*
X168190000Y-86150000D02*
X168190000Y-82390000D01*
X175010000Y-82390000D02*
X173750000Y-82390000D01*
X175010000Y-86150000D02*
X175010000Y-82390000D01*
X168290000Y-87430000D02*
X167960000Y-87670000D01*
X167960000Y-87190000D01*
X168290000Y-87430000D01*
G36*
X168290000Y-87430000D02*
G01*
X167960000Y-87670000D01*
X167960000Y-87190000D01*
X168290000Y-87430000D01*
G37*
%TO.C,D4*%
X166610000Y-65600000D02*
X166610000Y-58600000D01*
X166610000Y-65600000D02*
X172110000Y-65600000D01*
X170260000Y-59400000D02*
X168460000Y-59400000D01*
X170260000Y-64800000D02*
X168460000Y-64800000D01*
X171660000Y-58600000D02*
X166610000Y-58600000D01*
X172110000Y-59050000D02*
X171660000Y-58600000D01*
X172110000Y-65600000D02*
X172110000Y-59050000D01*
%TO.C,J2*%
X151895000Y-58995000D02*
X164815000Y-58995000D01*
X151895000Y-61645000D02*
X151895000Y-58995000D01*
X151895000Y-64295000D02*
X151895000Y-62915000D01*
X153275000Y-64295000D02*
X151895000Y-64295000D01*
X154545000Y-61645000D02*
X151895000Y-61645000D01*
X154545000Y-64295000D02*
X154545000Y-61645000D01*
X154545000Y-64295000D02*
X164815000Y-64295000D01*
X164815000Y-64295000D02*
X164815000Y-58995000D01*
%TO.C,U1*%
X154025000Y-83600000D02*
X167525000Y-83600000D01*
X154025000Y-100500000D02*
X154025000Y-83600000D01*
X167525000Y-83600000D02*
X167525000Y-100500000D01*
X167525000Y-100500000D02*
X154025000Y-100500000D01*
X168211000Y-93590000D02*
X167875000Y-93350000D01*
X168211000Y-93110000D01*
X168211000Y-93590000D01*
G36*
X168211000Y-93590000D02*
G01*
X167875000Y-93350000D01*
X168211000Y-93110000D01*
X168211000Y-93590000D01*
G37*
D11*
%TO.C,R13*%
X178026400Y-92688600D02*
X179023600Y-92688600D01*
X178026400Y-93406600D02*
X178026400Y-92688600D01*
X178026400Y-93859000D02*
X178026400Y-94577000D01*
X178026400Y-94577000D02*
X179023600Y-94577000D01*
X179023600Y-92688600D02*
X179023600Y-93406600D01*
X179023600Y-94577000D02*
X179023600Y-93859000D01*
%TO.C,C16*%
X179326400Y-87728800D02*
X179326400Y-88421200D01*
X179478800Y-88573600D02*
X180268900Y-88573600D01*
X180268900Y-87576400D02*
X179478800Y-87576400D01*
X180721300Y-87576400D02*
X181511400Y-87576400D01*
X181511400Y-88573600D02*
X180721300Y-88573600D01*
X181663800Y-87728800D02*
X181663800Y-88421200D01*
X179326400Y-87728800D02*
G75*
G02*
X179478800Y-87576400I152400J0D01*
G01*
X179478800Y-88573600D02*
G75*
G02*
X179326400Y-88421200I0J152400D01*
G01*
X181511400Y-87576400D02*
G75*
G02*
X181663800Y-87728800I0J-152400D01*
G01*
X181663800Y-88421200D02*
G75*
G02*
X181511400Y-88573600I-152400J0D01*
G01*
%TO.C,R4*%
X177698000Y-66826400D02*
X178416000Y-66826400D01*
X177698000Y-67823600D02*
X177698000Y-66826400D01*
X178416000Y-67823600D02*
X177698000Y-67823600D01*
X178868400Y-67823600D02*
X179586400Y-67823600D01*
X179586400Y-66826400D02*
X178868400Y-66826400D01*
X179586400Y-67823600D02*
X179586400Y-66826400D01*
D12*
%TO.C,U6*%
X147850000Y-59002500D02*
X147850000Y-61862500D01*
X151270000Y-59002500D02*
X151270000Y-61862500D01*
X147960000Y-58762500D02*
X147680000Y-58762500D01*
X147960000Y-58482500D01*
X147960000Y-58762500D01*
G36*
X147960000Y-58762500D02*
G01*
X147680000Y-58762500D01*
X147960000Y-58482500D01*
X147960000Y-58762500D01*
G37*
%TO.C,SW2*%
X161555000Y-80080000D02*
X165695000Y-80080000D01*
X161555000Y-80380000D02*
X161555000Y-80080000D01*
X161555000Y-83220000D02*
X161555000Y-82920000D01*
X165695000Y-80080000D02*
X165695000Y-80380000D01*
X165695000Y-82920000D02*
X165695000Y-83220000D01*
X165695000Y-83220000D02*
X161555000Y-83220000D01*
%TO.C,D1*%
X180457800Y-69085000D02*
X184342800Y-69085000D01*
X184342800Y-66815000D02*
X180457800Y-66815000D01*
X184342800Y-69085000D02*
X184342800Y-66815000D01*
%TO.C,U8*%
X151782500Y-76190000D02*
X153282500Y-76190000D01*
X151782500Y-77910000D02*
X153282500Y-77910000D01*
X151332500Y-76450000D02*
X151052500Y-76450000D01*
X151332500Y-76170000D01*
X151332500Y-76450000D01*
G36*
X151332500Y-76450000D02*
G01*
X151052500Y-76450000D01*
X151332500Y-76170000D01*
X151332500Y-76450000D01*
G37*
D11*
%TO.C,C10*%
X172526400Y-66933700D02*
X172526400Y-67723800D01*
X172526400Y-68966300D02*
X172526400Y-68176200D01*
X173371200Y-66781300D02*
X172678800Y-66781300D01*
X173371200Y-69118700D02*
X172678800Y-69118700D01*
X173523600Y-67723800D02*
X173523600Y-66933700D01*
X173523600Y-68176200D02*
X173523600Y-68966300D01*
X172526400Y-66933700D02*
G75*
G02*
X172678800Y-66781300I152400J0D01*
G01*
X172678800Y-69118700D02*
G75*
G02*
X172526400Y-68966300I0J152400D01*
G01*
X173371200Y-66781300D02*
G75*
G02*
X173523600Y-66933700I0J-152400D01*
G01*
X173523600Y-68966300D02*
G75*
G02*
X173371200Y-69118700I-152400J0D01*
G01*
%TO.C,C19*%
X146038900Y-72178800D02*
X146038900Y-72871200D01*
X146191300Y-73023600D02*
X146981400Y-73023600D01*
X146981400Y-72026400D02*
X146191300Y-72026400D01*
X147433800Y-72026400D02*
X148223900Y-72026400D01*
X148223900Y-73023600D02*
X147433800Y-73023600D01*
X148376300Y-72178800D02*
X148376300Y-72871200D01*
X146038900Y-72178800D02*
G75*
G02*
X146191300Y-72026400I152400J0D01*
G01*
X146191300Y-73023600D02*
G75*
G02*
X146038900Y-72871200I0J152400D01*
G01*
X148223900Y-72026400D02*
G75*
G02*
X148376300Y-72178800I0J-152400D01*
G01*
X148376300Y-72871200D02*
G75*
G02*
X148223900Y-73023600I-152400J0D01*
G01*
%TO.C,C20*%
X153976400Y-75733700D02*
X153976400Y-76523800D01*
X153976400Y-77766300D02*
X153976400Y-76976200D01*
X154821200Y-75581300D02*
X154128800Y-75581300D01*
X154821200Y-77918700D02*
X154128800Y-77918700D01*
X154973600Y-76523800D02*
X154973600Y-75733700D01*
X154973600Y-76976200D02*
X154973600Y-77766300D01*
X153976400Y-75733700D02*
G75*
G02*
X154128800Y-75581300I152400J0D01*
G01*
X154128800Y-77918700D02*
G75*
G02*
X153976400Y-77766300I0J152400D01*
G01*
X154821200Y-75581300D02*
G75*
G02*
X154973600Y-75733700I0J-152400D01*
G01*
X154973600Y-77766300D02*
G75*
G02*
X154821200Y-77918700I-152400J0D01*
G01*
%TD*%
M02*
